<svg width="307" height="87" viewBox="0 0 307 87" fill="none" xmlns="http://www.w3.org/2000/svg">
<path d="M20.0818 35.4659C26.2755 35.4659 31.2965 30.4438 31.2965 24.2487C31.2965 18.0536 26.2755 13.0316 20.0818 13.0316C13.8881 13.0316 8.86719 18.0536 8.86719 24.2487C8.86719 30.4438 13.8881 35.4659 20.0818 35.4659Z" fill="#FF9F1C"/>
<path d="M34.0689 35.4725C26.9674 42.5756 15.4585 42.569 8.35703 35.4725L0 43.8314C11.7181 55.5522 30.7078 55.5456 42.426 43.8314L34.0689 35.4725Z" fill="url(#paint0_linear_87_4717)"/>
<path d="M30.0016 62.0208C19.9575 62.0208 8.35703 45.5189 8.35703 35.4725L0 43.8314C0 60.4053 13.4314 73.8397 30.0016 73.8397V62.0208Z" fill="url(#paint1_linear_87_4717)"/>
<path d="M63.2927 37.6448C67.4376 37.6448 70.7766 40.293 70.8917 44.4955H55.7512C56.3844 40.1203 59.4356 37.6448 63.2927 37.6448ZM78.4332 53.4187H69.7404C68.7041 55.5487 66.8044 57.2758 63.3502 57.2758C59.3204 57.2758 56.0966 54.6276 55.6936 49.907H79.0089C79.1816 48.8707 79.2392 47.8345 79.2392 46.7983C79.2392 37.2994 72.7339 31.0244 63.5229 31.0244C54.0817 31.0244 47.5188 37.4146 47.5188 47.4891C47.5188 57.506 54.2544 63.9537 63.5229 63.9537C71.4099 63.9537 76.7062 59.2907 78.4332 53.4187ZM81.7255 31.5425L93.4695 63.4356H103.256L115.058 31.5425H106.48L98.4204 56.0092L90.3608 31.5425H81.7255ZM133.286 37.6448C137.431 37.6448 140.77 40.293 140.885 44.4955H125.744C126.378 40.1203 129.429 37.6448 133.286 37.6448ZM148.426 53.4187H139.734C138.697 55.5487 136.798 57.2758 133.343 57.2758C129.314 57.2758 126.09 54.6276 125.687 49.907H149.002C149.175 48.8707 149.232 47.8345 149.232 46.7983C149.232 37.2994 142.727 31.0244 133.516 31.0244C124.075 31.0244 117.512 37.4146 117.512 47.4891C117.512 57.506 124.248 63.9537 133.516 63.9537C141.403 63.9537 146.699 59.2907 148.426 53.4187ZM177.452 63.4356H185.511V44.7258C185.511 35.9178 180.215 31.082 172.789 31.082C168.701 31.082 165.247 32.8091 163.175 35.5148V31.5425H155.115V63.4356H163.175V45.8196C163.175 40.696 165.996 37.9327 170.371 37.9327C174.631 37.9327 177.452 40.696 177.452 45.8196V63.4356ZM194.442 53.5338C194.442 60.845 198.53 63.4356 204.632 63.4356H209.698V56.6425H205.956C203.423 56.6425 202.559 55.7214 202.559 53.5914V38.1629H209.698V31.5425H202.559V23.6556H194.442V31.5425H190.643V38.1629H194.442V53.5338ZM229.196 37.6448C233.341 37.6448 236.68 40.293 236.795 44.4955H221.655C222.288 40.1203 225.339 37.6448 229.196 37.6448ZM244.337 53.4187H235.644C234.608 55.5487 232.708 57.2758 229.254 57.2758C225.224 57.2758 222 54.6276 221.597 49.907H244.912C245.085 48.8707 245.143 47.8345 245.143 46.7983C245.143 37.2994 238.638 31.0244 229.427 31.0244C219.985 31.0244 213.422 37.4146 213.422 47.4891C213.422 57.506 220.158 63.9537 229.427 63.9537C237.313 63.9537 242.61 59.2907 244.337 53.4187ZM264.727 37.6448C268.872 37.6448 272.211 40.293 272.326 44.4955H257.185C257.819 40.1203 260.87 37.6448 264.727 37.6448ZM279.867 53.4187H271.175C270.138 55.5487 268.239 57.2758 264.784 57.2758C260.755 57.2758 257.531 54.6276 257.128 49.907H280.443C280.616 48.8707 280.673 47.8345 280.673 46.7983C280.673 37.2994 274.168 31.0244 264.957 31.0244C255.516 31.0244 248.953 37.4146 248.953 47.4891C248.953 57.506 255.689 63.9537 264.957 63.9537C272.844 63.9537 278.14 59.2907 279.867 53.4187ZM294.616 47.5466C294.616 41.3868 297.494 39.5446 302.273 39.5446H304.403V31.082C299.97 31.082 296.631 33.212 294.616 36.4935V31.5425H286.556V63.4356H294.616V47.5466Z" fill="#0060D5"/>
<defs>
<linearGradient id="paint0_linear_87_4717" x1="5.38074" y1="39.9503" x2="10.9094" y2="57.4401" gradientUnits="userSpaceOnUse">
<stop stop-color="#006FD9"/>
<stop offset="1" stop-color="#0053D9"/>
</linearGradient>
<linearGradient id="paint1_linear_87_4717" x1="3.805" y1="45.4919" x2="25.3273" y2="67.0094" gradientUnits="userSpaceOnUse">
<stop stop-color="#006FD9"/>
<stop offset="1" stop-color="#0053D9"/>
</linearGradient>
</defs>
</svg>
