<svg width="542" height="174" viewBox="0 0 542 174" fill="none" xmlns="http://www.w3.org/2000/svg">
<g filter="url(#filter0_d_199_858)">
<rect width="534" height="166" rx="10" fill="url(#paint0_linear_199_858)"/>
</g>
<path d="M184.297 113H137.234V45.7812H150.688V99.5469H184.297V113ZM237.266 113H234.172L229.203 106.109C227.984 107.203 226.688 108.234 225.312 109.203C223.969 110.141 222.547 110.969 221.047 111.688C219.547 112.375 218 112.922 216.406 113.328C214.844 113.734 213.25 113.938 211.625 113.938C208.094 113.938 204.766 113.344 201.641 112.156C198.547 110.969 195.828 109.25 193.484 107C191.172 104.719 189.344 101.938 188 98.6562C186.656 95.375 185.984 91.6406 185.984 87.4531C185.984 83.5469 186.656 79.9688 188 76.7188C189.344 73.4375 191.172 70.625 193.484 68.2812C195.828 65.9375 198.547 64.125 201.641 62.8438C204.766 61.5312 208.094 60.875 211.625 60.875C213.25 60.875 214.859 61.0781 216.453 61.4844C218.047 61.8906 219.594 62.4531 221.094 63.1719C222.594 63.8906 224.016 64.7344 225.359 65.7031C226.734 66.6719 228.016 67.7188 229.203 68.8438L234.172 62.8906H237.266V113ZM224.375 87.4531C224.375 85.7031 224.031 84.0156 223.344 82.3906C222.688 80.7344 221.781 79.2812 220.625 78.0312C219.469 76.75 218.109 75.7344 216.547 74.9844C215.016 74.2031 213.375 73.8125 211.625 73.8125C209.875 73.8125 208.219 74.1094 206.656 74.7031C205.125 75.2969 203.781 76.1719 202.625 77.3281C201.5 78.4844 200.609 79.9219 199.953 81.6406C199.297 83.3281 198.969 85.2656 198.969 87.4531C198.969 89.6406 199.297 91.5938 199.953 93.3125C200.609 95 201.5 96.4219 202.625 97.5781C203.781 98.7344 205.125 99.6094 206.656 100.203C208.219 100.797 209.875 101.094 211.625 101.094C213.375 101.094 215.016 100.719 216.547 99.9688C218.109 99.1875 219.469 98.1719 220.625 96.9219C221.781 95.6406 222.688 94.1875 223.344 92.5625C224.031 90.9062 224.375 89.2031 224.375 87.4531ZM259.953 132.125H247.062V62.7969H250.156L255.266 68.8438C256.422 67.75 257.688 66.7188 259.062 65.75C260.438 64.7812 261.859 63.9531 263.328 63.2656C264.828 62.5469 266.375 61.9844 267.969 61.5781C269.562 61.1719 271.172 60.9688 272.797 60.9688C276.328 60.9688 279.641 61.6094 282.734 62.8906C285.859 64.1406 288.578 65.9219 290.891 68.2344C293.234 70.5469 295.078 73.3438 296.422 76.625C297.766 79.875 298.438 83.4844 298.438 87.4531C298.438 91.5781 297.766 95.2969 296.422 98.6094C295.078 101.891 293.234 104.688 290.891 107C288.578 109.281 285.859 111.031 282.734 112.25C279.641 113.469 276.328 114.078 272.797 114.078C271.672 114.078 270.547 113.953 269.422 113.703C268.328 113.453 267.234 113.125 266.141 112.719C265.078 112.281 264.016 111.797 262.953 111.266C261.922 110.734 260.922 110.188 259.953 109.625V132.125ZM285.594 87.4531C285.594 85.3281 285.25 83.4219 284.562 81.7344C283.906 80.0469 283 78.625 281.844 77.4688C280.688 76.2812 279.328 75.375 277.766 74.75C276.203 74.125 274.547 73.8125 272.797 73.8125C271.047 73.8125 269.391 74.125 267.828 74.75C266.297 75.375 264.953 76.2812 263.797 77.4688C262.641 78.625 261.719 80.0469 261.031 81.7344C260.375 83.4219 260.047 85.3281 260.047 87.4531C260.047 89.4844 260.375 91.3438 261.031 93.0312C261.719 94.7188 262.641 96.1562 263.797 97.3438C264.953 98.5312 266.297 99.4531 267.828 100.109C269.391 100.766 271.047 101.094 272.797 101.094C274.547 101.094 276.203 100.766 277.766 100.109C279.328 99.4531 280.688 98.5312 281.844 97.3438C283 96.1562 283.906 94.7188 284.562 93.0312C285.25 91.3438 285.594 89.4844 285.594 87.4531ZM354.078 87.4531C354.078 91.2031 353.406 94.7031 352.062 97.9531C350.719 101.172 348.891 103.969 346.578 106.344C344.266 108.688 341.547 110.547 338.422 111.922C335.328 113.266 332 113.938 328.438 113.938C324.906 113.938 321.578 113.266 318.453 111.922C315.359 110.547 312.641 108.688 310.297 106.344C307.984 103.969 306.156 101.172 304.812 97.9531C303.469 94.7031 302.797 91.2031 302.797 87.4531C302.797 83.6406 303.469 80.1094 304.812 76.8594C306.156 73.6094 307.984 70.8125 310.297 68.4688C312.641 66.0938 315.359 64.2344 318.453 62.8906C321.578 61.5469 324.906 60.875 328.438 60.875C332 60.875 335.328 61.5156 338.422 62.7969C341.547 64.0469 344.266 65.8438 346.578 68.1875C348.891 70.5 350.719 73.2969 352.062 76.5781C353.406 79.8281 354.078 83.4531 354.078 87.4531ZM341.188 87.4531C341.188 85.3906 340.844 83.5312 340.156 81.875C339.5 80.1875 338.594 78.75 337.438 77.5625C336.281 76.3438 334.922 75.4219 333.359 74.7969C331.828 74.1406 330.188 73.8125 328.438 73.8125C326.688 73.8125 325.031 74.1406 323.469 74.7969C321.938 75.4219 320.594 76.3438 319.438 77.5625C318.312 78.75 317.422 80.1875 316.766 81.875C316.109 83.5312 315.781 85.3906 315.781 87.4531C315.781 89.3906 316.109 91.1875 316.766 92.8438C317.422 94.5 318.312 95.9375 319.438 97.1562C320.594 98.375 321.938 99.3438 323.469 100.062C325.031 100.75 326.688 101.094 328.438 101.094C330.188 101.094 331.828 100.766 333.359 100.109C334.922 99.4531 336.281 98.5312 337.438 97.3438C338.594 96.1562 339.5 94.7188 340.156 93.0312C340.844 91.3438 341.188 89.4844 341.188 87.4531ZM373.953 113H361.156V62.7969H364.25L368.469 68.75C370.531 66.875 372.875 65.4375 375.5 64.4375C378.125 63.4062 380.844 62.8906 383.656 62.8906H394.953V75.6406H383.656C382.312 75.6406 381.047 75.8906 379.859 76.3906C378.672 76.8906 377.641 77.5781 376.766 78.4531C375.891 79.3281 375.203 80.3594 374.703 81.5469C374.203 82.7344 373.953 84 373.953 85.3438V113ZM413.797 113H400.906V42.8281H413.797V87.0781L432.875 62.8906H447.594L430.953 83.7969L447.594 113H432.875L422.703 94.7656L413.797 106.578V113ZM489.547 107.141C488.516 108.078 487.406 108.969 486.219 109.812C485.062 110.625 483.844 111.344 482.562 111.969C481.281 112.562 479.953 113.031 478.578 113.375C477.234 113.75 475.859 113.938 474.453 113.938C471.359 113.938 468.453 113.391 465.734 112.297C463.016 111.203 460.625 109.656 458.562 107.656C456.531 105.625 454.922 103.172 453.734 100.297C452.578 97.3906 452 94.1406 452 90.5469V62.7969H464.75V90.5469C464.75 92.2344 465 93.75 465.5 95.0938C466.031 96.4062 466.734 97.5156 467.609 98.4219C468.484 99.3281 469.5 100.016 470.656 100.484C471.844 100.953 473.109 101.188 474.453 101.188C475.766 101.188 477 100.891 478.156 100.297C479.344 99.6719 480.375 98.8594 481.25 97.8594C482.125 96.8594 482.812 95.7344 483.312 94.4844C483.812 93.2031 484.062 91.8906 484.062 90.5469V62.7969H496.859V113H493.766L489.547 107.141Z" fill="url(#paint1_linear_199_858)" fill-opacity="0.8"/>
<rect x="33.1484" y="31.8806" width="87.8517" height="97.613" rx="10" fill="#B1DADE"/>
<rect x="33.1484" y="31.8806" width="21.9629" height="97.613" fill="#B1DADE"/>
<rect x="96.9595" y="27" width="7.80904" height="107.423" transform="rotate(45 96.9595 27)" fill="white"/>
<rect x="58.5244" y="75.0135" width="7.80904" height="78.5001" transform="rotate(-45 58.5244 75.0135)" fill="white"/>
<defs>
<filter id="filter0_d_199_858" x="0" y="0" width="542" height="174" filterUnits="userSpaceOnUse" color-interpolation-filters="sRGB">
<feFlood flood-opacity="0" result="BackgroundImageFix"/>
<feColorMatrix in="SourceAlpha" type="matrix" values="0 0 0 0 0 0 0 0 0 0 0 0 0 0 0 0 0 0 127 0" result="hardAlpha"/>
<feOffset dx="4" dy="4"/>
<feGaussianBlur stdDeviation="2"/>
<feComposite in2="hardAlpha" operator="out"/>
<feColorMatrix type="matrix" values="0 0 0 0 0 0 0 0 0 0 0 0 0 0 0 0 0 0 0.25 0"/>
<feBlend mode="normal" in2="BackgroundImageFix" result="effect1_dropShadow_199_858"/>
<feBlend mode="normal" in="SourceGraphic" in2="effect1_dropShadow_199_858" result="shape"/>
</filter>
<linearGradient id="paint0_linear_199_858" x1="-6.34856e-06" y1="8.84426" x2="257.837" y2="365.594" gradientUnits="userSpaceOnUse">
<stop stop-color="white"/>
</linearGradient>
<linearGradient id="paint1_linear_199_858" x1="131" y1="-37.9681" x2="537.877" y2="196.499" gradientUnits="userSpaceOnUse">
<stop stop-color="#A2D3D7"/>
<stop offset="1" stop-color="#7EBFD1"/>
</linearGradient>
</defs>
</svg>
